<svg aria-hidden="true" style="position: absolute; width: 0; height: 0; overflow: hidden;" version="1.1" xmlns="http://www.w3.org/2000/svg" xmlns:xlink="http://www.w3.org/1999/xlink">
<defs>
<symbol id="icon-close-2" viewBox="0 0 32 32">
<path fill="#404bbf" style="fill: var(--color1, #404bbf)" d="M32.011 16.006c0 8.84-7.166 16.006-16.006 16.006s-16.006-7.166-16.006-16.006c0-8.84 7.166-16.006 16.006-16.006s16.006 7.166 16.006 16.006z"></path>
<path fill="#fff" style="fill: var(--color2, #fff)" d="M21.341 11.745l-1.075-1.075-4.26 4.26-4.26-4.26-1.075 1.075 4.26 4.26-4.26 4.26 1.075 1.075 4.26-4.26 4.26 4.26 1.075-1.075-4.26-4.26 4.26-4.26z"></path>
</symbol>
<symbol id="icon-close" viewBox="0 0 32 32">
<path fill="#e7e9fc" style="fill: var(--color3, #e7e9fc)" d="M32 16c0 8.837-7.163 16-16 16s-16-7.163-16-16c0-8.837 7.163-16 16-16s16 7.163 16 16z"></path>
<path fill="none" stroke="#000" style="stroke: var(--color4, #D0D2E3)" stroke-linejoin="miter" stroke-linecap="butt" stroke-miterlimit="4" stroke-width="1.3333" d="M31.333 16c0 8.468-6.865 15.333-15.333 15.333s-15.333-6.865-15.333-15.333c0-8.468 6.865-15.333 15.333-15.333s15.333 6.865 15.333 15.333z"></path>
<path fill="#000" style="fill: var(--color4, #000)" d="M21.333 11.741l-1.074-1.074-4.259 4.259-4.259-4.259-1.074 1.074 4.259 4.259-4.259 4.259 1.074 1.074 4.259-4.259 4.259 4.259 1.074-1.074-4.259-4.259 4.259-4.259z"></path>
</symbol>
<symbol id="icon-click" viewBox="0 0 32 32">
<path fill="#404bbf" style="fill: var(--color1, #404bbf)" d="M4.004 1.251h24.023c1.52 0 2.753 1.232 2.753 2.753v24.023c0 1.52-1.232 2.753-2.753 2.753h-24.023c-1.52 0-2.753-1.232-2.753-2.753v-24.023c0-1.52 1.232-2.753 2.753-2.753z"></path>
<path fill="#f4f4fd" style="fill: var(--color5, #f4f4fd)" d="M22.914 8.518c0.33-0.319 0.78-0.515 1.275-0.515 1.004 0 1.82 0.807 1.836 1.807l0 0.001c0 0.014 0.001 0.031 0.001 0.047 0 0.483-0.184 0.923-0.486 1.253l0.001-0.001-9.798 12.32c-0.338 0.364-0.819 0.591-1.353 0.591-0.248 0-0.484-0.049-0.699-0.137l0.012 0.004c-0.239-0.099-0.442-0.237-0.612-0.408l-0-0-6.498-6.532c-0.362-0.339-0.588-0.82-0.588-1.354 0-0.251 0.050-0.49 0.14-0.709l-0.005 0.012c0.282-0.684 0.944-1.157 1.717-1.157 0.009 0 0.018 0 0.026 0h-0.001c0.519 0.010 0.985 0.234 1.312 0.587l0.001 0.001 5.143 5.169 8.528-10.927c0.016-0.020 0.033-0.037 0.050-0.054l-0.002-0z"></path>
<path fill="none" stroke="#404bbf" style="stroke: var(--color1, #404bbf)" stroke-linejoin="miter" stroke-linecap="butt" stroke-miterlimit="4" stroke-width="2.5" d="M4.004 1.251h24.023c1.52 0 2.753 1.232 2.753 2.753v24.023c0 1.52-1.232 2.753-2.753 2.753h-24.023c-1.52 0-2.753-1.232-2.753-2.753v-24.023c0-1.52 1.232-2.753 2.753-2.753z"></path>
</symbol>

<symbol id="icon-menu" viewBox="0 0 47 32">
<path stroke-linejoin="round" stroke-linecap="round" stroke-miterlimit="4" stroke-width="4.3636" d="M1.961 29.166h42.98M1.961 15.623h42.98M1.961 2.080h42.98"></path>
</symbol>

<symbol id="icon-checkbox" viewBox="0 0 32 32">
<path stroke-linejoin="miter" stroke-linecap="butt" stroke-miterlimit="4" stroke-width="2.5" d="M4 1.25h24c1.519 0 2.75 1.231 2.75 2.75v24c0 1.519-1.231 2.75-2.75 2.75h-24c-1.519 0-2.75-1.231-2.75-2.75v-24c0-1.519 1.231-2.75 2.75-2.75z"></path>
</symbol>

</defs>
</svg>
